M48
; DRILL file {KiCad (5.1.5)-3} date 2/1/2021 5:37:09 PM
; FORMAT={-:-/ absolute / inch / decimal}
; #@! TF.CreationDate,2021-02-01T17:37:09+01:00
; #@! TF.GenerationSoftware,Kicad,Pcbnew,(5.1.5)-3
; #@! TF.FileFunction,Plated,1,2,PTH
FMAT,2
INCH
T1C0.0157
T2C0.0197
T3C0.0354
T4C0.0374
T5C0.0394
T6C0.0551
%
G90
G05
T1
X5.74Y-5.36
X5.84Y-5.56
X5.92Y-4.95
X6.09Y-4.1
X6.425Y-4.605
X6.48Y-4.665
X6.555Y-4.985
X6.66Y-4.625
X6.665Y-5.02
X6.805Y-4.745
X7.305Y-4.625
T3
X5.8661Y-5.3937
X5.9661Y-5.3937
T4
X7.61Y-4.8931
X7.61Y-4.9916
X7.61Y-5.09
X7.61Y-5.1884
X7.61Y-5.2869
T5
X4.1732Y-5.0197
X4.1732Y-5.1181
X7.64Y-4.28
X7.64Y-4.38
X7.64Y-4.48
X7.64Y-4.58
X7.53Y-4.28
X7.53Y-4.38
X7.53Y-4.48
X7.53Y-4.58
X4.1732Y-4.4685
X4.1732Y-4.5669
T6
X6.2508Y-5.1181
X6.2508Y-5.3681
X6.2508Y-5.6181
X6.8898Y-5.1181
X6.8898Y-5.3681
X6.8898Y-5.6181
X4.9122Y-5.1181
X4.9122Y-5.3681
X4.9122Y-5.6181
X5.5512Y-5.1181
X5.5512Y-5.3681
X5.5512Y-5.6181
T2
G00X5.7937Y-4.5494
M15
G01X5.8094Y-4.5494
M16
G05
G00X5.7937Y-4.7306
M15
G01X5.8094Y-4.7306
M16
G05
G00X5.8921Y-4.5494
M15
G01X5.9079Y-4.5494
M16
G05
G00X5.8921Y-4.7306
M15
G01X5.9079Y-4.7306
M16
G05
G00X5.9906Y-4.5494
M15
G01X6.0063Y-4.5494
M16
G05
G00X5.9906Y-4.7306
M15
G01X6.0063Y-4.7306
M16
G05
T5
G00X5.7205Y-4.0453
M15
G01X5.7205Y-4.1437
M16
G05
G00X5.8563Y-3.9764
M15
G01X5.9547Y-3.9764
M16
G05
G00X5.8563Y-4.2126
M15
G01X5.9547Y-4.2126
M16
G05
T0
M30
